<svg id="visual" viewBox="0 0 900 600" width="900" height="600" xmlns="http://www.w3.org/2000/svg" xmlns:xlink="http://www.w3.org/1999/xlink" version="1.1"><rect x="0" y="0" width="900" height="600" fill="#001220"></rect><defs><linearGradient id="grad1_0" x1="33.3%" y1="100%" x2="100%" y2="0%"><stop offset="20%" stop-color="#001220" stop-opacity="1"></stop><stop offset="80%" stop-color="#001220" stop-opacity="1"></stop></linearGradient></defs><defs><linearGradient id="grad2_0" x1="0%" y1="100%" x2="66.7%" y2="0%"><stop offset="20%" stop-color="#001220" stop-opacity="1"></stop><stop offset="80%" stop-color="#001220" stop-opacity="1"></stop></linearGradient></defs><g transform="translate(900, 600)"><path d="M-486.7 0C-484.8 -68.9 -482.9 -137.9 -449.7 -186.3C-416.5 -234.7 -352.2 -262.6 -305.5 -305.5C-258.8 -348.3 -229.7 -406.1 -181.8 -438.8C-133.8 -471.5 -66.9 -479.1 0 -486.7L0 0Z" fill="#FBAE3C"></path></g><g transform="translate(0, 0)"><path d="M486.7 0C440.5 49.1 394.2 98.2 372.3 154.2C350.4 210.2 352.9 273.1 326.7 326.7C300.5 380.3 245.5 424.6 186.3 449.7C127 474.8 63.5 480.8 0 486.7L0 0Z" fill="#FBAE3C"></path></g></svg>