<svg id="visual" viewBox="0 0 900 600" width="900" height="600" xmlns="http://www.w3.org/2000/svg" xmlns:xlink="http://www.w3.org/1999/xlink" version="1.1"><rect x="0" y="0" width="900" height="600" fill="#001220"></rect><defs><linearGradient id="grad1_0" x1="33.3%" y1="0%" x2="100%" y2="100%"><stop offset="20%" stop-color="#001220" stop-opacity="1"></stop><stop offset="80%" stop-color="#001220" stop-opacity="1"></stop></linearGradient></defs><defs><linearGradient id="grad2_0" x1="0%" y1="0%" x2="66.7%" y2="100%"><stop offset="20%" stop-color="#001220" stop-opacity="1"></stop><stop offset="80%" stop-color="#001220" stop-opacity="1"></stop></linearGradient></defs><g transform="translate(900, 0)"><path d="M0 486.7C-68.9 484.8 -137.9 482.9 -186.3 449.7C-234.7 416.5 -262.6 352.2 -305.5 305.5C-348.3 258.8 -406.1 229.7 -438.8 181.8C-471.5 133.8 -479.1 66.9 -486.7 0L0 0Z" fill="#FBAE3C"></path></g><g transform="translate(0, 600)"><path d="M0 -486.7C49.1 -440.5 98.2 -394.2 154.2 -372.3C210.2 -350.4 273.1 -352.9 326.7 -326.7C380.3 -300.5 424.6 -245.5 449.7 -186.3C474.8 -127 480.8 -63.5 486.7 0L0 0Z" fill="#FBAE3C"></path></g></svg>